<svg width="300" height="292" viewBox="0 0 300 292" fill="none" xmlns="http://www.w3.org/2000/svg">
    <rect width="299.5" height="292" fill="none"/>
    <mask id="mask0_8_23" style="mask-type:alpha" maskUnits="userSpaceOnUse" x="38" y="48" width="225" height="199">
        <path fill-rule="evenodd" clip-rule="evenodd" d="M263 48H38V247H263V48ZM151 196L149 98.5L233 146L151 196ZM151 196L68 242V147.5L151 196Z" fill="#D9D9D9"/>
    </mask>
    <g mask="url(#mask0_8_23)">
        <path d="M151 196L126.883 237.981C125.1 241.086 121.792 243 118.212 243H74.3256C70.7251 243 67.4025 241.064 65.6266 237.932L43.8333 199.497C42.0788 196.403 42.1001 192.609 43.889 189.535L121.608 55.9707C123.398 52.8932 126.69 51 130.251 51H174.134C177.756 51 181.095 52.9587 182.862 56.1204L257.713 190.015C259.44 193.104 259.406 196.876 257.622 199.933L235.394 238.039C233.602 241.111 230.313 243 226.756 243H183.342C179.733 243 176.404 241.055 174.631 237.911L151 196Z" fill="url(#paint0_radial_8_23)"/>
        <path d="M151 196L126.883 237.981C125.1 241.086 121.792 243 118.212 243H74.3256C70.7251 243 67.4025 241.064 65.6266 237.932L43.8333 199.497C42.0788 196.403 42.1001 192.609 43.889 189.535L121.608 55.9707C123.398 52.8932 126.69 51 130.251 51H174.134C177.756 51 181.095 52.9587 182.862 56.1204L257.713 190.015C259.44 193.104 259.406 196.876 257.622 199.933L235.394 238.039C233.602 241.111 230.313 243 226.756 243H183.342C179.733 243 176.404 241.055 174.631 237.911L151 196Z" fill="url(#paint1_radial_8_23)"/>
        <path d="M151 196L126.883 237.981C125.1 241.086 121.792 243 118.212 243H74.3256C70.7251 243 67.4025 241.064 65.6266 237.932L43.8333 199.497C42.0788 196.403 42.1001 192.609 43.889 189.535L121.608 55.9707C123.398 52.8932 126.69 51 130.251 51H174.134C177.756 51 181.095 52.9587 182.862 56.1204L257.713 190.015C259.44 193.104 259.406 196.876 257.622 199.933L235.394 238.039C233.602 241.111 230.313 243 226.756 243H183.342C179.733 243 176.404 241.055 174.631 237.911L151 196Z" fill="url(#paint2_radial_8_23)"/>
        <path d="M151 196L126.883 237.981C125.1 241.086 121.792 243 118.212 243H74.3256C70.7251 243 67.4025 241.064 65.6266 237.932L43.8333 199.497C42.0788 196.403 42.1001 192.609 43.889 189.535L121.608 55.9707C123.398 52.8932 126.69 51 130.251 51H174.134C177.756 51 181.095 52.9587 182.862 56.1204L257.713 190.015C259.44 193.104 259.406 196.876 257.622 199.933L235.394 238.039C233.602 241.111 230.313 243 226.756 243H183.342C179.733 243 176.404 241.055 174.631 237.911L151 196Z" fill="url(#paint3_radial_8_23)"/>
    </g>
    <defs>
        <radialGradient id="paint0_radial_8_23" cx="0" cy="0" r="1" gradientUnits="userSpaceOnUse" gradientTransform="translate(243 216) rotate(-156.737) scale(232.938 241.651)">
            <stop stop-color="#0000FF"/>
            <stop offset="1" stop-color="#0000FF" stop-opacity="0"/>
        </radialGradient>
        <radialGradient id="paint1_radial_8_23" cx="0" cy="0" r="1" gradientUnits="userSpaceOnUse" gradientTransform="translate(140 62) rotate(111.017) scale(203.541 379.577)">
            <stop stop-color="#0000FF"/>
            <stop offset="1" stop-color="#0000FF" stop-opacity="0"/>
        </radialGradient>
        <radialGradient id="paint2_radial_8_23" cx="0" cy="0" r="1" gradientUnits="userSpaceOnUse" gradientTransform="translate(208 243) rotate(-125.91) scale(35.805 40.9333)">
            <stop stop-color="#0000FF"/>
            <stop offset="1" stop-color="#0000FF" stop-opacity="0"/>
        </radialGradient>
        <radialGradient id="paint3_radial_8_23" cx="0" cy="0" r="1" gradientUnits="userSpaceOnUse" gradientTransform="translate(65 202) rotate(-26.1139) scale(113.596 202.986)">
            <stop stop-color="#FEBABA"/>
            <stop offset="0.573775" stop-color="#EEA9C0" stop-opacity="0.6"/>
            <stop offset="1" stop-color="#EEA9C0" stop-opacity="0"/>
        </radialGradient>
    </defs>
</svg>
