<svg width="31" height="32" viewBox="0 0 31 32" fill="none" xmlns="http://www.w3.org/2000/svg">
    <path d="M21.1399 8.78467C18.6986 8.78467 17.6669 9.94959 15.9667 9.94959C14.2236 9.94959 12.894 8.79314 10.7785 8.79314C8.70778 8.79314 6.49964 10.0574 5.09738 12.211C3.12839 15.248 3.46261 20.9679 6.65161 25.8407C7.79232 27.5851 9.31567 29.5413 11.3137 29.5625H11.35C13.0865 29.5625 13.6024 28.4255 15.9922 28.4121H16.0285C18.3826 28.4121 18.8548 29.5559 20.5841 29.5559H20.6204C22.6184 29.5347 24.2235 27.3671 25.3642 25.6294C26.1852 24.3797 26.4904 23.7525 27.1201 22.3387C22.507 20.5877 21.7659 14.048 26.3281 11.5408C24.9356 9.79701 22.9787 8.78709 21.1338 8.78709L21.1399 8.78467Z" fill="white"/>
    <path d="M20.5999 2.43896C19.1467 2.53766 17.4514 3.46281 16.4585 4.67072C15.5575 5.76541 14.8164 7.38928 15.1071 8.9641H15.2233C16.7709 8.9641 18.3548 8.03228 19.2799 6.8383C20.1712 5.70184 20.8469 4.09129 20.5999 2.43896Z" fill="white"/>
</svg>
